<svg width="210" height="32" viewBox="0 0 210 32" fill="none" xmlns="http://www.w3.org/2000/svg">
<g clip-path="url(#clip0_2357_35549)">
<path d="M39.8511 5.48926H20.1064V23.4467H39.8511V5.48926Z" fill="white"/>
<path fill-rule="evenodd" clip-rule="evenodd" d="M45.9682 16C45.9682 24.8249 38.8144 31.9787 29.9895 31.9787C21.1647 31.9787 14.0107 24.8249 14.0107 16C14.0107 7.17516 21.1647 0.0212402 29.9895 0.0212402C38.8144 0.0212402 45.9682 7.17516 45.9682 16ZM25.4616 22.3587H22.3605C21.7089 22.3587 21.387 22.3587 21.1908 22.2332C20.9788 22.0957 20.8493 21.868 20.8336 21.6168C20.8218 21.3853 20.9827 21.1026 21.3046 20.5373L28.9614 7.04113C29.2872 6.46803 29.4521 6.18147 29.6601 6.0755C29.8839 5.96167 30.1508 5.96167 30.3746 6.0755C30.5826 6.18147 30.7475 6.46803 31.0733 7.04113L32.6473 9.78888L32.6554 9.8029C33.0073 10.4177 33.1857 10.7295 33.2636 11.0568C33.35 11.414 33.35 11.7908 33.2636 12.148C33.1851 12.4777 33.0085 12.7918 32.6513 13.4159L28.6293 20.5255L28.6189 20.5437C28.2647 21.1636 28.0852 21.4778 27.8364 21.7149C27.5656 21.974 27.2397 22.1623 26.8825 22.2685C26.5567 22.3587 26.1917 22.3587 25.4616 22.3587ZM33.2927 22.3587H37.7361C38.3916 22.3587 38.7214 22.3587 38.9178 22.2293C39.1297 22.0919 39.2631 21.8602 39.275 21.6091C39.2863 21.3851 39.1288 21.1134 38.8203 20.581C38.8097 20.5628 38.799 20.5444 38.7882 20.5256L36.5624 16.718L36.5371 16.6752C36.2244 16.1463 36.0665 15.8792 35.8637 15.776C35.6401 15.6621 35.3769 15.6621 35.1533 15.776C34.9491 15.8819 34.7843 16.1606 34.4585 16.722L32.2407 20.5296L32.2331 20.5427C31.9084 21.1031 31.7461 21.3832 31.7578 21.6129C31.7736 21.8642 31.9031 22.0957 32.115 22.2332C32.3074 22.3587 32.6371 22.3587 33.2927 22.3587Z" fill="#E84142"/>
</g>
<path d="M56.2798 26H51.6662L58.696 5.63636H64.2443L71.2642 26H66.6506L61.5497 10.2898H61.3906L56.2798 26ZM55.9915 17.9957H66.8892V21.3565H55.9915V17.9957ZM85.9602 10.7273L80.6207 26H75.848L70.5085 10.7273H74.983L78.1548 21.6548H78.3139L81.4759 10.7273H85.9602ZM92.0728 26.2884C91.0984 26.2884 90.23 26.1193 89.4677 25.7812C88.7054 25.4366 88.1022 24.9295 87.658 24.2599C87.2205 23.5838 87.0018 22.742 87.0018 21.7344C87.0018 20.8859 87.1576 20.1733 87.4691 19.5966C87.7807 19.0199 88.2049 18.5559 88.7418 18.2045C89.2788 17.8532 89.8886 17.5881 90.5714 17.4091C91.2608 17.2301 91.9833 17.1042 92.739 17.0312C93.6272 16.9384 94.3432 16.8523 94.8867 16.7727C95.4303 16.6866 95.8247 16.5606 96.07 16.3949C96.3152 16.2292 96.4379 15.9839 96.4379 15.6591V15.5994C96.4379 14.9697 96.239 14.4825 95.8413 14.1378C95.4502 13.7931 94.8933 13.6207 94.1708 13.6207C93.4085 13.6207 92.802 13.7898 92.3512 14.1278C91.9004 14.4593 91.6022 14.8769 91.4563 15.3807L87.5387 15.0625C87.7376 14.1345 88.1287 13.3324 88.712 12.6562C89.2953 11.9735 90.0477 11.4498 90.9691 11.0852C91.8971 10.714 92.971 10.5284 94.1907 10.5284C95.0392 10.5284 95.8512 10.6278 96.6268 10.8267C97.409 11.0256 98.1017 11.3338 98.7049 11.7514C99.3147 12.169 99.7953 12.706 100.147 13.3622C100.498 14.0118 100.674 14.7907 100.674 15.6989V26H96.6566V23.8821H96.5373C96.292 24.3594 95.9639 24.7803 95.5529 25.1449C95.1419 25.5028 94.6481 25.7846 94.0714 25.9901C93.4947 26.1889 92.8285 26.2884 92.0728 26.2884ZM93.2859 23.3651C93.909 23.3651 94.4592 23.2424 94.9364 22.9972C95.4137 22.7453 95.7882 22.4072 96.06 21.983C96.3318 21.5587 96.4677 21.0781 96.4677 20.5412V18.9205C96.3351 19.0066 96.1528 19.0862 95.9208 19.1591C95.6954 19.2254 95.4402 19.2884 95.1552 19.348C94.8701 19.401 94.5851 19.4508 94.3001 19.4972C94.015 19.5369 93.7565 19.5734 93.5245 19.6065C93.0273 19.6795 92.5932 19.7955 92.2219 19.9545C91.8507 20.1136 91.5624 20.3291 91.3569 20.6009C91.1514 20.866 91.0487 21.1974 91.0487 21.5952C91.0487 22.1719 91.2575 22.6127 91.6751 22.9176C92.0993 23.2159 92.6362 23.3651 93.2859 23.3651ZM108.196 5.63636V26H103.96V5.63636H108.196ZM115.944 26.2884C114.969 26.2884 114.101 26.1193 113.339 25.7812C112.576 25.4366 111.973 24.9295 111.529 24.2599C111.092 23.5838 110.873 22.742 110.873 21.7344C110.873 20.8859 111.029 20.1733 111.34 19.5966C111.652 19.0199 112.076 18.5559 112.613 18.2045C113.15 17.8532 113.76 17.5881 114.442 17.4091C115.132 17.2301 115.854 17.1042 116.61 17.0312C117.498 16.9384 118.214 16.8523 118.758 16.7727C119.301 16.6866 119.696 16.5606 119.941 16.3949C120.186 16.2292 120.309 15.9839 120.309 15.6591V15.5994C120.309 14.9697 120.11 14.4825 119.712 14.1378C119.321 13.7931 118.764 13.6207 118.042 13.6207C117.28 13.6207 116.673 13.7898 116.222 14.1278C115.772 14.4593 115.473 14.8769 115.327 15.3807L111.41 15.0625C111.609 14.1345 112 13.3324 112.583 12.6562C113.166 11.9735 113.919 11.4498 114.84 11.0852C115.768 10.714 116.842 10.5284 118.062 10.5284C118.91 10.5284 119.722 10.6278 120.498 10.8267C121.28 11.0256 121.973 11.3338 122.576 11.7514C123.186 12.169 123.666 12.706 124.018 13.3622C124.369 14.0118 124.545 14.7907 124.545 15.6989V26H120.528V23.8821H120.408C120.163 24.3594 119.835 24.7803 119.424 25.1449C119.013 25.5028 118.519 25.7846 117.942 25.9901C117.366 26.1889 116.7 26.2884 115.944 26.2884ZM117.157 23.3651C117.78 23.3651 118.33 23.2424 118.808 22.9972C119.285 22.7453 119.659 22.4072 119.931 21.983C120.203 21.5587 120.339 21.0781 120.339 20.5412V18.9205C120.206 19.0066 120.024 19.0862 119.792 19.1591C119.567 19.2254 119.311 19.2884 119.026 19.348C118.741 19.401 118.456 19.4508 118.171 19.4972C117.886 19.5369 117.628 19.5734 117.396 19.6065C116.898 19.6795 116.464 19.7955 116.093 19.9545C115.722 20.1136 115.433 20.3291 115.228 20.6009C115.022 20.866 114.92 21.1974 114.92 21.5952C114.92 22.1719 115.129 22.6127 115.546 22.9176C115.97 23.2159 116.507 23.3651 117.157 23.3651ZM132.067 17.1705V26H127.831V10.7273H131.868V13.4219H132.047C132.385 12.5336 132.952 11.831 133.747 11.3139C134.543 10.7902 135.507 10.5284 136.641 10.5284C137.701 10.5284 138.626 10.7604 139.415 11.2244C140.204 11.6884 140.817 12.3513 141.254 13.2131C141.692 14.0682 141.911 15.089 141.911 16.2756V26H137.675V17.0312C137.681 16.0966 137.443 15.3674 136.959 14.8438C136.475 14.3134 135.809 14.0483 134.96 14.0483C134.39 14.0483 133.886 14.1709 133.449 14.4162C133.018 14.6615 132.68 15.0194 132.435 15.4901C132.196 15.9541 132.073 16.5142 132.067 17.1705ZM152.15 26.2983C150.585 26.2983 149.239 25.9669 148.113 25.304C146.992 24.6345 146.131 23.7064 145.527 22.5199C144.931 21.3333 144.632 19.9678 144.632 18.4233C144.632 16.8589 144.934 15.4867 145.537 14.3068C146.147 13.1203 147.012 12.1955 148.132 11.5327C149.253 10.8632 150.585 10.5284 152.13 10.5284C153.462 10.5284 154.629 10.7704 155.63 11.2543C156.631 11.7382 157.423 12.4176 158.006 13.2926C158.589 14.1676 158.911 15.1951 158.971 16.375H154.973C154.861 15.6127 154.562 14.9995 154.078 14.5355C153.601 14.0649 152.975 13.8295 152.199 13.8295C151.543 13.8295 150.97 14.0085 150.479 14.3665C149.995 14.7178 149.617 15.2315 149.346 15.9077C149.074 16.5838 148.938 17.4025 148.938 18.3636C148.938 19.3381 149.07 20.1667 149.336 20.8494C149.607 21.5322 149.989 22.0526 150.479 22.4105C150.97 22.7685 151.543 22.9474 152.199 22.9474C152.683 22.9474 153.117 22.848 153.502 22.6491C153.893 22.4503 154.214 22.1619 154.466 21.7841C154.725 21.3996 154.894 20.9389 154.973 20.402H158.971C158.904 21.5687 158.586 22.5961 158.016 23.4844C157.453 24.366 156.674 25.0554 155.679 25.5526C154.685 26.0497 153.508 26.2983 152.15 26.2983ZM165.918 17.1705V26H161.683V5.63636H165.799V13.4219H165.978C166.323 12.5204 166.879 11.8144 167.648 11.304C168.417 10.7869 169.382 10.5284 170.542 10.5284C171.603 10.5284 172.527 10.7604 173.316 11.2244C174.112 11.6818 174.728 12.3414 175.165 13.2031C175.61 14.0582 175.828 15.0824 175.822 16.2756V26H171.586V17.0312C171.593 16.09 171.354 15.3575 170.87 14.8338C170.393 14.3101 169.723 14.0483 168.862 14.0483C168.285 14.0483 167.774 14.1709 167.33 14.4162C166.893 14.6615 166.548 15.0194 166.296 15.4901C166.051 15.9541 165.925 16.5142 165.918 17.1705ZM186.115 26.2983C184.544 26.2983 183.192 25.9801 182.059 25.3438C180.932 24.7008 180.063 23.7926 179.453 22.6193C178.844 21.4394 178.539 20.044 178.539 18.4332C178.539 16.8622 178.844 15.4834 179.453 14.2969C180.063 13.1103 180.922 12.1856 182.029 11.5227C183.142 10.8598 184.448 10.5284 185.946 10.5284C186.954 10.5284 187.892 10.6908 188.76 11.0156C189.635 11.3338 190.398 11.8144 191.047 12.4574C191.703 13.1004 192.214 13.9091 192.578 14.8835C192.943 15.8513 193.125 16.9848 193.125 18.2841V19.4474H180.229V16.8224H189.138C189.138 16.2126 189.006 15.6723 188.74 15.2017C188.475 14.7311 188.107 14.3632 187.637 14.098C187.173 13.8262 186.632 13.6903 186.016 13.6903C185.373 13.6903 184.803 13.8395 184.306 14.1378C183.815 14.4295 183.431 14.8239 183.152 15.321C182.874 15.8116 182.731 16.3584 182.725 16.9616V19.4574C182.725 20.2131 182.864 20.866 183.142 21.4162C183.427 21.9664 183.828 22.3906 184.346 22.6889C184.863 22.9872 185.476 23.1364 186.185 23.1364C186.656 23.1364 187.087 23.0701 187.478 22.9375C187.869 22.8049 188.203 22.6061 188.482 22.3409C188.76 22.0758 188.972 21.7509 189.118 21.3665L193.036 21.625C192.837 22.5663 192.429 23.3883 191.813 24.0909C191.203 24.7869 190.414 25.3305 189.446 25.7216C188.485 26.1061 187.375 26.2983 186.115 26.2983Z" fill="black"/>
<defs>
<clipPath id="clip0_2357_35549">
<rect width="31.9787" height="32" fill="white" transform="translate(14)"/>
</clipPath>
</defs>
</svg>
