<svg width="210" height="32" viewBox="0 0 210 32" fill="none" xmlns="http://www.w3.org/2000/svg">
<path opacity="0.5" d="M125.178 32L134.945 9.74018L144.902 32H152.815L138.581 0H131.428L119.784 26.0544V0H113.225H112.726H105.431L99.4904 9.20846L94.0962 0H86.492L95.0467 15.4199L90.104 24.1692L79.2917 0H72.4242L58 32H66.0082L75.7748 9.83686L85.7316 32H93.6209L99.3478 22.2115L105.693 32H125.178ZM103.364 15.5408L112.726 0.797584V30.3565L103.364 15.5408ZM68.2894 26.8036L75.8223 21.5589L83.2602 26.4894L85.7316 32L75.8223 25.4743L66.0082 32L68.2894 26.8036ZM127.46 26.8036L134.969 21.5589L142.454 26.5136L144.902 32L134.945 25.4743L125.178 32L127.46 26.8036Z" fill="#178FE1"/>
<path d="M125.178 32L134.945 9.74018L144.902 32H152.815L138.581 0H131.428L119.784 26.0544V0H113.225H112.726H105.431L99.4904 9.20846L94.0962 0H86.492L95.0467 15.4199L90.104 24.1692L79.2917 0H72.4242L58 32H66.0082L75.7748 9.83686L85.7316 32H93.6209L99.3478 22.2115L105.693 32H125.178ZM103.364 15.5408L112.726 0.797584V30.3565L103.364 15.5408Z" fill="#178FE1"/>
</svg>
