<svg width="210" height="32" viewBox="0 0 210 32" fill="none" xmlns="http://www.w3.org/2000/svg">
<g clip-path="url(#clip0_2357_35521)">
<path d="M34.6472 13.4467L40.8617 7.23248L47.0794 13.45L50.6954 9.83396L40.8617 0L31.0312 9.83068L34.6472 13.4467Z" fill="#F3BA2F"/>
<path d="M32.094 15.9995L28.478 12.3835L24.8619 15.9997L28.4778 19.6156L32.094 15.9995Z" fill="#F3BA2F"/>
<path d="M34.6477 18.5533L40.8621 24.7675L47.0796 18.5503L50.6976 22.1643L50.6958 22.1663L40.8621 32L31.0314 22.1696L31.0264 22.1645L34.6477 18.5533Z" fill="#F3BA2F"/>
<path d="M53.2462 19.6173L56.8623 16.0012L53.2464 12.3853L49.6303 16.0014L53.2462 19.6173Z" fill="#F3BA2F"/>
<path d="M44.5298 15.9982H44.5313L40.862 12.3289L38.1503 15.0405H38.1501L37.8387 15.3522L37.196 15.9949L37.1909 15.9999L37.196 16.0053L40.862 19.6713L44.5313 16.002L44.5331 15.9999L44.5298 15.9982Z" fill="#F3BA2F"/>
<path d="M62.4995 7.75391H70.3641C72.316 7.75391 73.7921 8.25484 74.7924 9.25671C75.5666 10.0326 75.9535 10.9943 75.9535 12.1415V12.19C75.9535 12.6748 75.8936 13.1032 75.7731 13.4747C75.6527 13.8468 75.492 14.1817 75.2911 14.4807C75.0906 14.7799 74.8576 15.0425 74.5927 15.2685C74.3276 15.4949 74.0428 15.689 73.7377 15.8503C74.7189 16.2223 75.4912 16.727 76.0544 17.3655C76.6172 18.0041 76.899 18.889 76.899 20.02V20.0683C76.899 20.8442 76.7499 21.5228 76.4514 22.1049C76.1529 22.6864 75.7253 23.1715 75.1685 23.5594C74.6117 23.9474 73.9422 24.238 73.1597 24.4321C72.3772 24.626 71.51 24.7228 70.5585 24.7228H62.4995V7.75391ZM69.5778 14.6141C70.4023 14.6141 71.0569 14.4731 71.5414 14.19C72.0261 13.9072 72.2685 13.4505 72.2685 12.8204V12.7719C72.2685 12.2065 72.0582 11.7743 71.6382 11.475C71.2179 11.176 70.6118 11.0264 69.8202 11.0264H66.1355V14.6141H69.5778V14.6141ZM70.5719 21.4505C71.3961 21.4505 72.0421 21.3014 72.5112 21.0022C72.9797 20.7032 73.2143 20.2384 73.2143 19.608V19.5598C73.2143 18.9941 72.9959 18.5458 72.5597 18.2142C72.1232 17.8833 71.4203 17.7175 70.4505 17.7175H66.1355V21.4508H70.5719V21.4505Z" fill="#F3BA2F"/>
<path d="M81.583 7.75391H85.3165V24.7233H81.583V7.75391Z" fill="#F3BA2F"/>
<path d="M90.9707 7.75391H94.4126L102.364 18.2023V7.75391H106.049V24.7233H102.873L94.6552 13.9357V24.7233H90.9707V7.75391Z" fill="#F3BA2F"/>
<path d="M117.352 7.63281H120.794L128.067 24.7233H124.164L122.612 20.9175H115.437L113.885 24.7233H110.079L117.352 7.63281ZM121.279 17.6202L119.024 12.1175L116.77 17.6202H121.279Z" fill="#F3BA2F"/>
<path d="M132.097 7.75391H135.539L143.49 18.2023V7.75391H147.175V24.7233H144L135.781 13.9357V24.7233H132.097V7.75391V7.75391Z" fill="#F3BA2F"/>
<path d="M160.611 25.0138C159.366 25.0138 158.211 24.7874 157.144 24.3352C156.077 23.8831 155.156 23.2646 154.38 22.4806C153.604 21.6969 152.998 20.7716 152.562 19.705C152.126 18.6382 151.908 17.4988 151.908 16.2866V16.2384C151.908 15.0262 152.126 13.8911 152.562 12.8324C152.998 11.7739 153.604 10.8446 154.38 10.0447C155.156 9.24473 156.085 8.61413 157.168 8.15364C158.25 7.69314 159.447 7.46289 160.756 7.46289C161.547 7.46289 162.27 7.52785 162.925 7.65674C163.58 7.7864 164.173 7.96383 164.707 8.19003C165.241 8.41649 165.733 8.69122 166.186 9.01423C166.638 9.33774 167.058 9.69309 167.446 10.0811L165.071 12.8203C164.408 12.2225 163.733 11.7534 163.047 11.4143C162.359 11.0751 161.588 10.9052 160.731 10.9052C160.02 10.9052 159.362 11.0427 158.756 11.3175C158.15 11.5922 157.629 11.9718 157.192 12.4566C156.756 12.9413 156.417 13.5032 156.174 14.1414C155.932 14.78 155.811 15.4627 155.811 16.1898V16.2381C155.811 16.9653 155.932 17.6525 156.174 18.2985C156.417 18.9452 156.751 19.5106 157.18 19.9954C157.608 20.4801 158.125 20.8643 158.731 21.1471C159.338 21.4302 160.004 21.5712 160.731 21.5712C161.701 21.5712 162.521 21.3936 163.192 21.038C163.862 20.6828 164.529 20.1978 165.192 19.5834L167.568 21.9835C167.131 22.4523 166.678 22.8726 166.21 23.2439C165.741 23.6159 165.228 23.9349 164.67 24.2018C164.113 24.4682 163.503 24.6706 162.841 24.8076C162.177 24.9448 161.434 25.0138 160.611 25.0138Z" fill="#F3BA2F"/>
<path d="M171.961 7.75391H184.737V11.0752H175.646V14.5176H183.646V17.8386H175.646V21.4023H184.859V24.7233H171.961V7.75391Z" fill="#F3BA2F"/>
</g>
<defs>
<clipPath id="clip0_2357_35521">
<rect width="159.737" height="32" fill="white" transform="translate(25)"/>
</clipPath>
</defs>
</svg>
