<svg width="210" height="32" viewBox="0 0 210 32" fill="none" xmlns="http://www.w3.org/2000/svg">
<g clip-path="url(#clip0_2357_35584)">
<path d="M79.0554 20.1363C79.0554 21.4362 77.9928 22.4987 76.693 22.4987C75.3931 22.4987 74.3306 21.4362 74.3306 20.1363C74.3306 18.8365 75.3931 17.7739 76.693 17.7739C77.9928 17.7739 79.0554 18.8262 79.0554 20.1363Z" fill="#EF382E"/>
<path d="M64.9947 13.1523L68.203 8.48944V3.76465H57.99L54.7404 8.48944H62.4466L58.4852 14.2562L60.8476 18.3517C61.5491 17.9493 62.3641 17.7121 63.2409 17.7121C65.8819 17.7121 68.0276 19.8475 68.0276 22.4988C68.0276 25.15 65.8819 27.2855 63.2409 27.2855C60.6 27.2855 58.4543 25.1397 58.4543 22.4988H53.7295C53.7295 27.7497 57.99 32.0103 63.2306 32.0103C68.4815 32.0103 72.7421 27.7497 72.7421 22.4988C72.7421 17.8462 69.3997 13.9776 64.9947 13.1523M51.4909 3.76465C49.7577 3.76465 48.1381 4.22887 46.7351 5.04385V3.76465H42V22.4988H46.7351V13.2555C46.7351 10.6249 48.8602 8.49976 51.4909 8.49976L53.0795 8.48944L56.3291 3.76465H51.4909Z" fill="black"/>
</g>
<g clip-path="url(#clip1_2357_35584)">
<path d="M161.731 24.4598C158.344 27.6398 150.272 26.9636 150.272 20.6914C150.272 14.0817 157.287 13.5715 161.689 13.973V13.9499C161.527 10.4919 155.704 11.3437 153.379 13.1785C152.651 12.1488 151.418 10.3069 150.913 9.4753C153.588 7.4354 160.124 5.94781 163.467 7.82509C165.94 9.20936 167.471 11.8223 167.47 14.6559V25.8657H161.887L161.731 24.4598ZM139.765 24.3073C133.825 28.9618 127.734 24.5424 126.975 18.555C126.029 11.0973 132.014 5.17474 139.718 7.756V0H145.591V25.8674H139.939L139.765 24.3073ZM139.717 18.025V12.8452C137.172 11.7014 133.243 11.6572 132.886 16.8576C132.519 22.184 139.259 22.7254 139.717 18.0246M117.174 9.44202C118.893 7.36701 121.338 6.76905 124.509 7.64815C124.032 10.2425 123.704 11.9951 123.525 12.9059C118.955 12.1193 117.273 13.4784 117.253 17.4196V25.8935H111.382V7.57148H117.035L117.174 9.44202ZM96.6612 9.00598C95.0404 10.1837 93.8317 11.842 93.2066 13.7455C91.5699 12.5573 89.2799 12.9205 88.0913 14.5569C87.5206 15.3429 87.2856 16.3233 87.438 17.2825C87.5905 18.2418 88.1178 19.1011 88.904 19.6714C90.1868 20.6034 91.9238 20.6034 93.2066 19.6714C93.8317 21.575 95.0404 23.2333 96.6612 24.411C94.6184 25.8979 92.0686 26.5123 89.5727 26.119C87.0769 25.7257 84.8395 24.3569 83.353 22.3138C81.8661 20.271 81.2517 17.7211 81.645 15.2253C82.0383 12.7294 83.4071 10.4921 85.4502 9.00556C88.7917 6.57396 93.3198 6.57396 96.6612 9.00556M161.667 17.8805C159.914 17.9016 155.961 17.2738 156.051 20.1555C156.142 23.0371 161.667 22.5328 161.667 19.2013V17.8826M102.276 20.3746C100.254 20.3695 98.6183 18.7259 98.6232 16.7034C98.6281 14.6813 100.271 13.046 102.293 13.0504C104.312 13.055 105.947 14.6931 105.947 16.7123C105.943 18.7367 104.3 20.3755 102.276 20.3741" fill="#E0081C"/>
</g>
<defs>
<clipPath id="clip0_2357_35584">
<rect width="37.0556" height="28.2353" fill="white" transform="translate(42 3.76465)"/>
</clipPath>
<clipPath id="clip1_2357_35584">
<rect width="85.9408" height="26.3529" fill="white" transform="translate(81.5293)"/>
</clipPath>
</defs>
</svg>
