<?xml version="1.0" encoding="utf-8"?>
<svg version="1.1" id="Layer_1" x="0px" y="0px" width="100%" viewBox="0 0 1280 640" enable-background="new 0 0 1280 640" xmlns="http://www.w3.org/2000/svg">
  <path fill="#FF5343" opacity="1.000000" stroke="none" d=" M718.246582,312.010895 C735.210205,312.001648 751.701599,311.723633 768.177307,312.111847 C776.948608,312.318573 785.758118,312.979706 794.114380,316.498657 C806.555542,321.737793 813.793335,330.654144 816.107300,344.087250 C818.456665,357.725647 814.896240,369.049408 804.400452,377.934540 C801.147278,380.688599 797.072327,382.471924 793.667725,384.522491 C798.333801,386.768494 803.383850,388.609619 807.790955,391.448822 C815.878296,396.659058 820.281982,404.761505 822.296875,413.883789 C824.545227,424.063049 823.805481,433.998993 818.313171,443.400177 C811.064331,455.808075 799.887695,463.338562 786.358154,464.638489 C763.199097,466.863647 739.833984,466.944519 716.000244,467.949219 C716.000244,465.134094 716.000183,463.686829 716.000183,462.239594 C716.000183,413.784088 715.983093,365.328583 716.074585,316.873260 C716.077637,315.254181 717.178589,313.637177 718.246582,312.010895 M744.593079,447.999908 C751.410461,447.999908 758.256531,448.386627 765.036804,447.885254 C771.161316,447.432343 777.342041,446.492981 783.275208,444.925201 C804.006042,439.447174 804.368347,413.139221 792.884521,403.292419 C787.571777,398.737061 781.686218,396.007751 774.732666,395.940552 C762.579102,395.823151 750.423645,395.907867 738.343872,395.907867 C738.343872,413.033447 738.343872,430.394592 738.343872,447.999908 C740.328735,447.999908 741.975037,447.999908 744.593079,447.999908 M738.000000,342.519867 C738.000000,353.608215 738.000000,364.696564 738.000000,375.000793 C750.946960,375.000793 763.266052,375.884888 775.392578,374.735901 C786.117554,373.719696 792.942566,366.830170 793.840881,355.726227 C794.671997,345.453094 789.820129,336.110504 779.120422,332.977783 C765.648132,329.033295 751.927368,331.908936 738.000000,330.874969 C738.000000,334.913361 738.000000,338.220337 738.000000,342.519867 z"/>
  <path fill="#FF5343" opacity="1.000000" stroke="none" d=" M918.033203,443.933197 C909.841492,429.437866 901.765015,415.291077 893.593689,401.199310 C893.045837,400.254578 891.795288,399.126434 890.844543,399.101166 C884.060303,398.920776 877.269043,399.004883 870.154846,399.004883 C870.154846,421.709381 870.154846,443.977814 870.154846,466.622528 C862.778503,466.622528 855.720886,466.622528 848.328613,466.622528 C848.328613,415.345978 848.328613,363.968079 848.328613,312.252960 C849.763794,312.168823 851.206116,312.012054 852.648621,312.010620 C869.809753,311.993744 886.977295,311.720642 904.129395,312.113495 C913.232910,312.322021 922.273254,313.694611 930.654297,317.905670 C943.466125,324.342987 950.033691,335.104706 951.925293,348.836212 C954.522949,367.693939 945.490662,384.603790 928.642700,392.619751 C924.596191,394.545013 920.031311,395.380798 915.228333,396.864838 C929.397644,419.684692 943.779785,442.847382 958.764526,466.980469 C949.442322,466.980469 941.058899,467.185730 932.705627,466.776276 C931.330200,466.708862 929.855774,464.085541 928.824341,462.400299 C925.165405,456.421936 921.678345,450.338348 918.033203,443.933197 M870.002808,333.724670 C870.002808,348.995911 870.002808,364.267120 870.002808,379.015503 C882.836304,379.015503 895.251587,379.745972 907.542847,378.823914 C921.753601,377.757874 930.251038,369.248444 929.021423,353.439636 C928.198181,342.855255 922.104187,334.455658 910.874817,333.169739 C898.290039,331.728546 885.549133,331.625580 872.869934,331.084869 C871.945251,331.045410 870.970581,332.179108 870.002808,333.724670 z"/>
  <path fill="#FF5343" opacity="1.000000" stroke="none" d=" M574.727539,415.754639 C588.467224,384.603149 602.001343,353.780701 615.528076,322.955017 C616.767151,320.131287 617.755249,317.171204 619.268005,314.506134 C619.915649,313.365082 621.540161,312.281616 622.843140,312.112000 C625.627441,311.749603 628.558655,312.392487 631.309448,311.921356 C637.899719,310.792572 640.942322,313.523468 643.479431,319.674591 C657.178101,352.886597 671.369568,385.895813 685.469116,418.941711 C692.216064,434.754913 699.135132,450.494659 706.284302,466.978088 C698.011353,466.978088 690.272827,467.109070 682.548950,466.832489 C681.430481,466.792419 679.916443,464.989960 679.374146,463.677246 C674.663086,452.273743 670.132202,440.795807 665.413696,429.005005 C642.142090,429.005005 618.673950,428.966827 595.207031,429.125122 C594.109436,429.132538 592.509155,430.677612 592.012085,431.869110 C587.188965,443.431946 582.551575,455.072296 577.811707,466.812927 C569.587891,466.812927 561.473938,466.812927 552.436035,466.812927 C559.925354,449.608948 567.222717,432.845886 574.727539,415.754639 M655.080872,404.426392 C646.559326,383.391602 638.037781,362.356812 629.246094,340.655273 C619.645020,363.908783 610.254211,386.653076 600.770325,409.622772 C619.808960,409.622772 638.297668,409.622772 656.960876,409.622772 C656.415955,407.843445 655.991577,406.457550 655.080872,404.426392 z"/>
  <path fill="#FF5343" opacity="1.000000" stroke="none" d=" M1106.922485,470.000000 C1088.846436,471.289948 1072.534302,467.427734 1057.961426,457.387054 C1038.963013,444.296997 1027.434692,426.301392 1024.008789,403.416534 C1020.632324,380.861481 1024.393066,359.716827 1037.675415,340.781616 C1050.167847,322.972717 1067.424438,312.945862 1088.903198,309.984039 C1102.568237,308.099731 1116.152954,307.841705 1129.211060,313.032013 C1140.042725,317.337372 1150.451172,322.442688 1157.172363,333.068085 C1151.904297,337.069183 1146.820679,341.086182 1141.526489,344.803497 C1140.603394,345.451660 1138.076050,345.425995 1137.497925,344.720856 C1119.651978,322.956970 1083.798462,325.424164 1064.622437,343.545929 C1041.986084,364.937866 1039.672729,405.299133 1058.507446,429.888519 C1066.376709,440.162048 1077.208252,446.285126 1089.816406,448.848846 C1104.521729,451.838989 1118.567261,450.107666 1130.946411,440.938110 C1134.511353,438.297394 1137.398804,434.756104 1140.736084,431.783966 C1141.553345,431.056061 1143.382812,430.261597 1143.959229,430.654205 C1149.076782,434.140076 1154.099609,437.784454 1158.910278,441.678558 C1159.542114,442.189972 1159.384521,444.877167 1158.642456,445.705536 C1147.367310,458.292816 1133.684448,466.678864 1116.686035,469.000366 C1113.606323,469.420959 1110.503418,469.671143 1106.922485,470.000000 z"/>
  <path fill="#FF5343" opacity="1.000000" stroke="none" d=" M558.000000,317.131195 C558.000000,322.576050 558.000000,327.534546 558.000000,332.809021 C532.992920,332.809021 508.398773,332.809021 483.402496,332.809021 C483.402496,348.507416 483.402496,363.890381 483.402496,379.777771 C506.249512,379.777771 529.298767,379.777771 552.672180,379.777771 C552.672180,386.658173 552.672180,393.045471 552.672180,399.939819 C529.585632,399.939819 506.536011,399.939819 483.160278,399.939819 C483.160278,422.365448 483.160278,444.293945 483.160278,466.610596 C475.789185,466.610596 468.733887,466.610596 461.336548,466.610596 C461.336548,415.375916 461.336548,364.011322 461.336548,312.322876 C493.326874,312.322876 525.367432,312.322876 557.745667,312.322876 C557.830322,313.761536 557.915161,315.203156 558.000000,317.131195 z"/>
  <path fill="#212527" opacity="1.000000" stroke="none" d=" M1054.254761,204.232758 C1041.325562,217.929855 1046.345825,239.724274 1063.650146,244.062119 C1069.114624,245.431931 1075.487427,244.277863 1081.224854,243.155579 C1087.202515,241.986267 1084.834839,236.497131 1084.838379,232.721863 C1084.842041,228.700241 1081.271484,230.120529 1079.086792,230.058197 C1072.009888,229.856262 1072.006714,229.953598 1072.000122,222.952835 C1071.998779,221.619675 1072.116943,220.274323 1071.978516,218.955734 C1071.605957,215.404739 1072.821167,213.798340 1076.690063,213.933853 C1083.680542,214.178665 1090.688354,214.115082 1097.683716,213.956177 C1100.934204,213.882339 1102.084106,215.094254 1102.044189,218.328720 C1101.913086,228.992340 1102.127930,239.661911 1101.861084,250.320465 C1101.817383,252.063202 1100.399658,254.770386 1098.958008,255.328262 C1079.746948,262.761871 1060.452393,265.713867 1042.594971,252.192139 C1030.715820,243.197235 1027.886597,229.999680 1029.339111,215.984650 C1030.564575,204.161179 1036.513550,194.644272 1046.536621,188.025833 C1059.490234,179.472244 1084.422119,180.108383 1096.985352,188.920212 C1100.020508,191.049088 1100.138184,192.581009 1097.506348,195.076843 C1094.283813,198.132950 1091.374512,201.519302 1088.374268,204.715439 C1073.464478,196.051407 1063.179443,195.864151 1054.254761,204.232758 z"/>
  <path fill="#212527" opacity="1.000000" stroke="none" d=" M1012.021912,199.045349 C1020.776855,212.769257 1021.132019,226.851730 1013.576843,240.398102 C1006.665100,252.791016 994.791748,258.257385 980.788086,258.977295 C971.994690,259.429321 963.182800,259.539429 954.393799,260.053284 C950.324158,260.291229 948.845337,258.987823 948.915222,254.747086 C949.143066,240.919174 949.114685,227.083862 948.957092,213.253983 C948.862488,204.952240 948.339172,196.655487 948.018250,188.356125 C947.928284,186.027954 948.109924,183.876694 951.301270,184.023911 C964.227661,184.620224 977.182434,184.872162 990.070801,185.931976 C999.127441,186.676682 1006.227234,191.668640 1012.021912,199.045349 M966.000000,221.500000 C966.002014,227.316956 965.845520,233.141510 966.123230,238.945282 C966.188538,240.311005 967.770081,242.783066 968.567383,242.748444 C974.974426,242.470322 981.669922,242.718399 987.681580,240.869171 C996.889832,238.036606 999.937927,231.748444 1000.062622,220.589493 C1000.146118,213.125076 997.362061,207.627441 990.779297,203.780731 C983.760010,199.678940 976.192932,199.816803 968.587769,200.239487 C967.659546,200.291077 966.195190,202.684540 966.123535,204.052628 C965.836914,209.522278 966.002014,215.015610 966.000000,221.500000 z"/>
  <path fill="#212527" opacity="1.000000" stroke="none" d=" M1195.000000,237.061127 C1194.998657,242.877518 1194.887817,248.205811 1195.038086,253.526733 C1195.125122,256.610291 1194.232056,258.121704 1190.834229,258.035614 C1173.795532,257.603882 1177.245850,260.638519 1177.054443,244.715332 C1176.824219,225.580643 1177.103394,206.440048 1176.919312,187.304352 C1176.879395,183.151627 1178.187256,181.747803 1182.327148,181.937057 C1193.763794,182.459961 1205.338013,181.738739 1216.630737,183.229813 C1234.102539,185.536743 1241.578003,205.684647 1230.488159,219.517059 C1228.134521,222.452637 1224.211426,224.129959 1220.309448,226.882156 C1225.955322,236.265457 1231.812256,245.999619 1238.373047,256.903320 C1234.907471,257.325134 1232.149902,257.919830 1229.385620,257.952118 C1217.824097,258.087097 1217.793701,258.040863 1212.448242,247.858810 C1210.206299,243.588318 1208.156372,239.217422 1205.945679,234.930115 C1205.111084,233.311478 1204.401367,231.336044 1203.036621,230.357819 C1201.361938,229.157593 1199.078003,228.454681 1197.019775,228.360565 C1196.412476,228.332809 1195.470581,231.039474 1195.066895,232.593079 C1194.742676,233.840256 1195.000488,235.238647 1195.000000,237.061127 M1213.509888,198.805786 C1208.298096,198.215805 1203.094727,197.462357 1197.866455,197.192963 C1196.970337,197.146820 1195.278076,199.072662 1195.120605,200.244308 C1193.474365,212.498840 1194.101562,213.157104 1206.273804,212.983047 C1207.753174,212.961884 1209.302979,212.951462 1210.693970,212.524811 C1217.490234,210.440353 1218.960938,204.726852 1213.509888,198.805786 z"/>
  <path fill="#FF5343" opacity="1.000000" stroke="none" d=" M1002.000000,346.000000 C1002.000000,386.462769 1002.000000,426.425568 1002.000000,466.693848 C994.960876,466.693848 988.239014,466.693848 981.256592,466.693848 C981.256592,415.316467 981.256592,364.053101 981.256592,312.394592 C987.852356,312.394592 994.578430,312.394592 1002.000000,312.394592 C1002.000000,323.320251 1002.000000,334.410126 1002.000000,346.000000 z"/>
  <path fill="#212527" opacity="1.000000" stroke="none" d=" M791.016479,253.034470 C787.667419,246.659668 784.511047,240.608002 781.253540,234.611282 C780.468262,233.165527 779.619568,231.279175 778.313965,230.709702 C776.634033,229.976913 774.291016,229.873398 772.576233,230.475250 C771.674622,230.791672 771.104858,233.178543 771.070190,234.646683 C770.912598,241.309494 770.871155,247.981476 771.048340,254.643234 C771.144287,258.252350 769.646973,259.724365 766.142151,260.003571 C753.995239,260.971130 753.999939,261.030823 754.000000,248.998001 C754.000122,229.165131 754.129395,209.330765 753.902466,189.500504 C753.850952,184.995316 755.332031,183.781433 759.643372,183.913147 C768.967834,184.197998 778.337097,183.536514 787.631226,184.138992 C796.158875,184.691772 804.622253,186.431549 809.092590,195.234558 C814.705933,206.288208 812.657227,222.656418 796.269958,227.901382 C799.438721,233.095535 802.554382,238.156006 805.622375,243.245255 C808.590576,248.168930 811.509644,253.122223 814.942566,258.889648 C807.892822,258.889648 801.761719,259.283997 795.742554,258.636932 C794.050232,258.455017 792.686584,255.215057 791.016479,253.034470 M791.414307,211.999176 C795.250427,206.641739 794.240723,201.365845 788.268372,199.914093 C783.390625,198.728424 778.079712,199.294952 772.958679,199.185898 C772.442810,199.174927 771.466553,199.852142 771.456055,200.230896 C771.332031,204.690918 771.277405,209.157654 771.441284,213.613922 C771.458801,214.090485 773.026978,214.976257 773.780884,214.885254 C779.471985,214.198242 785.139282,213.314331 791.414307,211.999176 z"/>
  <path fill="#212527" opacity="1.000000" stroke="none" d=" M477.998260,205.850830 C477.374573,210.572784 478.899017,212.321014 483.463837,212.093460 C490.607361,211.737381 497.783051,211.908768 504.941956,212.035095 C507.961853,212.088379 509.094055,210.923920 509.034760,207.922943 C508.906464,201.430527 509.104828,194.931351 508.958435,188.439713 C508.888123,185.320435 509.828430,183.882874 513.196411,183.961609 C528.895264,184.328552 525.796387,181.766327 525.950684,196.316818 C526.152039,215.300125 525.897034,234.288193 526.080200,253.271866 C526.120422,257.441315 525.221741,259.189270 520.594604,259.109192 C509.003967,258.908569 509.000397,259.130859 508.999878,247.473587 C508.999634,242.144348 508.833405,236.808258 509.054596,231.488251 C509.203339,227.910995 507.732941,226.865082 504.352173,226.948044 C497.195282,227.123688 490.026611,227.152206 482.871826,226.938034 C479.228516,226.828964 477.824554,227.992508 477.932404,231.763443 C478.156097,239.584351 477.841003,247.420700 478.065399,255.241562 C478.173828,259.020782 476.751221,260.132721 473.118622,260.054504 C457.864777,259.726166 460.124542,261.937073 460.032654,247.174561 C459.913483,228.023300 460.105682,208.869766 459.920044,189.719574 C459.879486,185.535583 460.798157,183.771561 465.417603,183.906067 C479.827637,184.325653 477.810120,182.223007 477.989258,196.379776 C478.027161,199.376984 477.997009,202.375061 477.998260,205.850830 z"/>
  <path fill="#212527" opacity="1.000000" stroke="none" d=" M742.999878,252.873871 C743.531067,257.129791 742.453125,259.230865 738.060669,259.260956 C725.923828,259.344055 713.790344,259.840271 701.653320,259.968719 C689.006287,260.102631 689.003601,259.998322 689.002319,247.478104 C689.000305,228.313690 689.162537,209.146988 688.889404,189.986465 C688.818848,185.040512 690.442993,183.801926 695.156677,183.899963 C708.815857,184.184036 722.485901,184.099777 736.148987,183.936035 C739.817871,183.892075 741.155701,185.048584 741.058289,188.791962 C740.709534,202.193939 742.697571,199.780212 730.069885,199.976959 C722.293823,200.098114 714.514343,199.999390 706.989685,199.999390 C706.704895,200.892105 706.600098,201.053452 706.612793,201.204971 C707.601318,213.000046 707.601990,212.999832 719.777161,213.000061 C724.609924,213.000153 729.447693,213.134949 734.273743,212.955200 C737.572449,212.832336 739.139832,213.756042 739.053101,217.415405 C738.721558,231.401810 740.736694,228.725159 727.948486,228.981232 C722.284668,229.094650 716.615784,229.071609 710.951355,228.977249 C708.287903,228.932892 706.886719,229.798660 706.980652,232.686569 C707.097534,236.278793 707.008728,239.877701 707.008728,243.001587 C717.346802,243.001587 726.806152,242.997269 736.265564,243.003036 C742.987610,243.007141 742.987793,243.013214 742.999817,249.907455 C743.001282,250.740631 743.000000,251.573807 742.999878,252.873871 z"/>
  <path fill="#212527" opacity="1.000000" stroke="none" d=" M935.997620,190.107147 C935.869568,201.211823 937.298462,199.908310 926.797180,199.989212 C919.805664,200.043076 912.808411,200.159393 905.823669,199.936386 C902.127441,199.818375 900.555298,201.095276 900.977661,204.808365 C901.127258,206.123276 901.109192,207.479187 900.984375,208.799057 C900.666687,212.158859 902.306946,213.096008 905.430054,213.042816 C913.418396,212.906754 921.413391,213.121536 929.400208,212.945984 C932.835510,212.870483 934.133545,214.019089 934.049866,217.534210 C933.721191,231.343094 935.768494,228.730881 922.852112,228.981796 C917.194092,229.091721 911.531128,229.073959 905.872681,228.977295 C903.163269,228.931015 901.871094,229.913132 901.967590,232.746338 C902.085266,236.199326 901.995667,239.659363 901.995667,243.001907 C912.317261,243.001907 922.056702,243.216476 931.779602,242.908249 C936.402527,242.761719 938.261780,243.879639 938.115967,248.919632 C937.801331,259.795197 938.064209,259.879181 927.094604,259.959259 C914.443237,260.051605 901.789124,259.876709 889.139893,260.066803 C885.307800,260.124359 883.889709,259.043365 883.921021,254.998367 C884.091125,233.025162 884.081177,211.049393 883.926941,189.075958 C883.899414,185.157242 885.097290,183.866074 889.054626,183.923523 C902.869080,184.124039 916.691467,184.173019 930.503479,183.901932 C935.007996,183.813538 936.642212,185.345184 935.997620,190.107147 z"/>
  <path fill="#212527" opacity="1.000000" stroke="none" d=" M1166.002686,247.881943 C1166.999023,257.998627 1166.999023,257.998871 1156.806396,257.998749 C1143.809448,257.998627 1130.810913,257.892059 1117.816284,258.064819 C1114.108398,258.114075 1112.902100,256.874634 1112.935181,253.176590 C1113.085693,236.348541 1113.077393,219.517792 1112.954956,202.689270 C1112.916382,197.388840 1112.359863,192.091278 1112.011841,186.794296 C1111.792114,183.453125 1113.179077,181.947754 1116.661743,181.969711 C1131.157715,182.061081 1145.654785,182.043213 1160.151123,181.977386 C1162.898071,181.964905 1163.881714,183.016968 1164.050171,185.786407 C1164.793457,198.003677 1164.870361,197.998795 1152.575806,197.999588 C1146.577271,197.999985 1140.573730,198.147018 1134.581909,197.946426 C1131.115234,197.830383 1129.614258,199.064468 1129.979614,202.557190 C1130.117554,203.875809 1130.122925,205.233978 1129.979980,206.551422 C1129.586914,210.171280 1131.354126,211.126801 1134.689575,211.051117 C1142.017456,210.884872 1149.364380,211.264923 1156.678833,210.909622 C1161.699829,210.665741 1163.079834,212.847610 1163.011719,217.396973 C1162.841187,228.760117 1163.954346,226.835556 1153.454956,226.983749 C1147.124268,227.073105 1140.789185,227.105301 1134.460571,226.959259 C1131.360840,226.887711 1129.896484,227.787445 1129.956421,231.177887 C1130.187134,244.237854 1128.656006,241.778839 1140.310913,241.978928 C1147.140625,242.096176 1153.984619,242.230896 1160.801880,241.917313 C1165.124146,241.718475 1166.545044,243.447632 1166.002686,247.881943 z"/>
  <path fill="#93DEDB" opacity="1.000000" stroke="none" d=" M197.990005,292.086609 C194.881500,298.858826 191.866409,305.264038 188.755829,311.622498 C186.628281,315.971527 183.230774,317.214355 178.669098,315.156708 C173.666595,312.900299 168.828735,310.276855 163.813171,308.052185 C160.574570,306.615662 159.861069,301.893951 162.022018,297.139130 C166.167206,288.018402 170.694214,279.071991 174.987152,270.017395 C181.056488,257.216095 187.019638,244.364380 193.106140,231.571304 C195.473953,226.594482 198.309265,225.638412 203.390350,227.864929 C208.123688,229.939072 213.068558,231.672943 217.473312,234.304749 C220.441132,236.078018 223.401367,238.863815 221.306107,243.237976 C213.565155,259.398315 205.799255,275.546722 197.990005,292.086609 z"/>
  <path fill="#FF5343" opacity="1.000000" stroke="none" d=" M175.336853,447.715057 C168.556198,444.396912 162.100555,441.278229 155.632034,438.186493 C149.750000,435.375122 148.328690,431.381226 151.226593,425.471497 C153.093704,421.663818 155.071060,417.910339 156.975952,414.121002 C159.661804,408.778076 163.053909,407.588623 168.535492,410.252747 C180.559570,416.096558 192.518875,422.074768 204.574600,427.852051 C214.266632,432.496674 224.050140,436.951355 233.815826,441.440826 C238.379059,443.538635 239.895599,446.488739 237.950317,451.248199 C235.799271,456.511108 233.349625,461.682922 230.613373,466.665588 C228.525803,470.467010 224.375107,471.143921 219.797897,468.931183 C207.910477,463.184479 196.056152,457.369293 184.163300,451.633942 C181.379120,450.291260 178.494598,449.156616 175.336853,447.715057 z"/>
  <path fill="#93DEDB" opacity="1.000000" stroke="none" d=" M213.243881,415.080261 C208.649643,412.885071 204.479156,410.726227 200.245590,408.699127 C196.344589,406.831299 194.856644,403.833618 196.609039,399.922119 C201.282639,389.490295 206.171707,379.154266 211.034164,368.807953 C216.649017,356.860657 222.270111,344.915619 227.999527,333.023132 C231.295624,326.181488 233.684509,325.549286 240.702469,328.934204 C244.473602,330.753082 248.411713,332.225372 252.186203,334.037903 C256.142578,335.937775 258.034546,339.071686 256.747620,343.499634 C256.172943,345.476990 255.225906,347.357361 254.342316,349.231995 C244.579880,369.943909 234.781845,390.639069 225.030884,411.356354 C222.913284,415.855499 219.727371,416.981140 213.243881,415.080261 z"/>
  <path fill="#93DEDB" opacity="1.000000" stroke="none" d=" M78.691437,296.702118 C83.726845,286.356934 88.531540,276.318970 93.297745,266.262817 C95.124512,262.408508 97.718201,260.919434 101.873207,262.931793 C107.085739,265.456329 112.533752,267.535706 117.585472,270.338348 C121.695091,272.618317 122.012566,276.507965 120.086967,280.571045 C112.626053,296.313873 105.134933,312.042450 97.662445,327.779816 C94.757736,333.897247 91.917366,340.045624 88.964859,346.139801 C86.456139,351.318054 82.787727,352.573120 77.377396,350.073578 C72.969063,348.036896 68.625664,345.857635 64.277885,343.692566 C59.958206,341.541443 58.919037,338.521179 60.969349,334.154388 C66.785950,321.766205 72.618874,309.385651 78.691437,296.702118 z"/>
  <path fill="#93DEDB" opacity="1.000000" stroke="none" d=" M305.302277,346.265869 C312.097870,332.105774 318.656281,318.252411 325.196350,304.390350 C326.490448,301.647400 327.687500,298.858704 328.975616,296.112823 C331.080841,291.625153 334.860779,290.994904 338.916779,292.512695 C343.424805,294.199615 347.767670,296.374878 352.063721,298.569885 C357.689301,301.444183 358.822357,305.012634 356.022278,310.847809 C349.935242,323.532715 343.702789,336.147980 337.636566,348.842712 C333.332153,357.850647 329.164520,366.924683 325.011292,376.003754 C323.038940,380.315399 319.342407,381.926056 315.059967,379.986908 C310.206604,377.789246 305.357666,375.569244 300.606537,373.162079 C295.902802,370.778931 294.996460,368.222626 297.063110,363.682556 C299.671509,357.952393 302.388550,352.271667 305.302277,346.265869 z"/>
  <path fill="#FF5343" opacity="1.000000" stroke="none" d=" M235.260986,275.685547 C252.778961,284.158508 269.979065,292.410950 287.199371,300.620972 C290.729706,302.304047 294.462219,303.598785 297.876892,305.480225 C302.886536,308.240417 305.404541,310.249817 302.028107,317.675964 C300.272430,321.537354 298.311920,325.306183 296.419464,329.104645 C293.792084,334.378143 290.317596,335.572052 284.875458,332.966949 C269.719421,325.711914 254.594040,318.392700 239.434036,311.145935 C232.816940,307.982819 226.113556,304.999634 219.508072,301.813019 C214.636612,299.462921 213.290207,296.085052 215.527954,291.044861 C217.776688,285.979950 220.099487,280.863434 223.166046,276.290009 C224.304428,274.592255 227.592133,273.928833 230.001923,273.636383 C231.555115,273.447876 233.294388,274.792511 235.260986,275.685547 z"/>
  <path fill="#FF5343" opacity="1.000000" stroke="none" d=" M137.064789,345.996887 C130.695190,342.935120 124.732498,339.881775 118.702316,336.968140 C114.397163,334.888000 113.157227,331.674957 115.064453,327.415588 C117.332138,322.351196 119.642693,317.285767 122.310768,312.427338 C124.403503,308.616547 128.580521,307.849640 133.096481,310.028503 C145.004425,315.774017 156.862137,321.624115 168.788681,327.330536 C178.054443,331.763824 187.364853,336.106781 196.710266,340.369629 C203.132141,343.298889 204.736786,347.398438 201.637115,353.786560 C199.713745,357.750488 197.745468,361.693176 195.752075,365.622406 C193.479568,370.101776 190.305847,371.117371 185.634583,368.876770 C171.222580,361.963745 156.821136,355.028717 142.403275,348.127930 C140.790207,347.355896 139.098221,346.748718 137.064789,345.996887 z"/>
  <path fill="#FF5343" opacity="1.000000" stroke="none" d=" M249.719238,199.302261 C254.604004,201.673157 259.253418,203.673355 263.733643,205.999390 C268.268311,208.353714 269.104248,211.154282 267.055664,215.725647 C264.988983,220.337433 262.988953,224.982376 260.790344,229.530914 C258.460571,234.350922 255.328171,235.432724 250.347748,233.069138 C233.262802,224.961105 216.222931,216.758118 199.155182,208.613785 C194.154572,206.227646 189.072983,204.007584 184.111130,201.544952 C179.034103,199.025162 178.137634,195.965912 180.601227,190.829773 C182.717773,186.417236 184.631241,181.902908 186.867188,177.553192 C189.445496,172.537384 192.279724,171.689178 197.340805,174.112503 C214.701096,182.424835 232.053970,190.752625 249.719238,199.302261 z"/>
  <path fill="#212527" opacity="1.000000" stroke="none" d=" M621.002075,214.000000 C621.002808,205.168655 621.004517,196.837326 621.003540,188.505981 C621.003235,186.280762 620.848267,183.945694 624.134155,184.030151 C636.593872,184.350327 649.057129,184.573868 661.511597,185.035736 C669.591431,185.335388 679.319702,195.583542 678.004883,204.462280 C677.283081,209.336990 677.591553,214.640945 675.710022,219.007889 C672.125549,227.327209 664.101318,229.322250 655.860291,229.944839 C651.883850,230.245255 647.855164,230.183472 643.870239,229.947220 C640.213867,229.730469 638.801819,231.003830 638.934875,234.771957 C639.169922,241.428680 638.868530,248.103241 639.047607,254.763458 C639.146912,258.456635 637.469360,259.944641 634.023560,259.974457 C633.856995,259.975891 633.690125,259.976440 633.523865,259.985382 C622.695068,260.568420 622.514709,260.576721 622.027161,249.886505 C621.489563,238.099945 621.327576,226.296234 621.002075,214.000000 M653.064392,214.945618 C659.067627,212.888123 660.839050,210.501297 659.930664,205.227539 C659.063110,200.191467 654.986206,199.436951 650.915405,199.057510 C648.272400,198.811157 645.584534,199.093689 642.923401,198.981537 C640.233582,198.868179 638.881226,199.850327 638.990234,202.712326 C639.518494,216.571472 635.704773,217.458069 653.064392,214.945618 z"/>
  <path fill="#212527" opacity="1.000000" stroke="none" d=" M590.357910,215.406342 C582.640076,224.092026 582.260315,234.222137 582.968933,244.662384 C583.171326,247.644653 583.001648,250.652298 582.997986,253.648315 C582.996948,254.480408 583.195557,255.387772 582.935974,256.132874 C580.464050,263.227692 574.467102,258.894745 570.139221,259.900848 C567.196838,260.584900 564.948242,259.461884 564.990540,255.716827 C565.080750,247.728577 565.241394,239.727951 564.880676,231.754654 C564.746643,228.792633 563.832275,225.511215 562.248108,223.030334 C555.005676,211.688232 547.393616,200.582321 539.930908,189.380539 C539.023743,188.018845 538.216614,186.590485 536.808533,184.284927 C544.068542,184.284927 550.592773,184.112640 557.091309,184.444794 C558.252014,184.504120 559.560547,186.501541 560.366760,187.861404 C564.762634,195.276138 569.022827,202.771393 573.793701,211.043503 C575.888245,207.658936 577.686401,204.803772 579.432068,201.916885 C580.893494,199.499969 582.177246,196.967880 583.748230,194.626724 C586.119141,191.093414 588.064209,185.624847 591.281555,184.674911 C596.851562,183.030350 603.257874,184.218567 610.727783,184.218567 C603.536072,195.224564 597.043274,205.160950 590.357910,215.406342 z"/>
  <path fill="#212527" opacity="1.000000" stroke="none" d=" M841.713989,185.516693 C842.240356,202.233459 842.671448,218.520416 842.977051,234.809692 C843.148499,243.949188 842.195068,242.945435 851.436951,242.995880 C857.266541,243.027695 863.098572,243.102356 868.925110,242.967499 C871.931152,242.897919 873.082764,244.048843 873.029236,247.064499 C872.771179,261.615631 874.776978,258.762604 861.809814,258.965851 C851.152405,259.132874 840.488159,258.877716 829.831421,259.065216 C826.140442,259.130188 824.914673,257.904846 824.937378,254.192947 C825.070801,232.374008 825.074402,210.553375 824.933167,188.734543 C824.908630,184.937393 826.295410,183.593994 829.902588,183.987610 C833.784241,184.411194 837.677856,184.725739 841.713989,185.516693 z"/>
  <path fill="#FF5343" opacity="1.000000" stroke="none" d=" M296.030212,388.005005 C300.384338,389.963684 304.343323,391.892395 308.343323,393.731964 C312.519073,395.652374 313.552032,398.911652 311.911713,402.885498 C309.799408,408.002777 307.460297,413.040283 304.948212,417.974335 C302.948059,421.902863 299.853882,423.215912 295.546234,421.154480 C281.719879,414.537811 267.845825,408.020599 253.977966,401.490936 C250.168976,399.697479 249.045166,396.667267 250.562241,392.997711 C252.860092,387.439606 255.243774,381.869781 258.187805,376.640961 C260.518585,372.501312 264.759216,373.257233 268.272095,374.847717 C277.485626,379.019348 286.537079,383.548950 296.030212,388.005005 z"/>
  <path fill="#FF5343" opacity="1.000000" stroke="none" d=" M356.357300,283.731537 C344.234161,277.993317 332.416260,272.528778 320.671173,266.911987 C314.431732,263.928131 313.323242,260.338226 316.387848,254.128403 C318.332184,250.188644 320.287628,246.254089 322.274872,242.335876 C324.651642,237.649658 327.432495,236.550644 332.304047,238.810196 C345.583862,244.969727 358.830933,251.202667 372.019806,257.554199 C377.489288,260.188202 378.560852,263.776276 375.900726,269.271332 C374.338654,272.498199 372.630859,275.654144 371.029663,278.862457 C366.763519,287.410309 365.148499,287.990509 356.357300,283.731537 z"/>
  <path fill="#FF5343" opacity="1.000000" stroke="none" d=" M121.899857,255.029892 C117.396873,253.001205 113.210945,251.136307 109.176491,248.987061 C104.962708,246.742310 104.119781,243.806915 106.139030,239.570480 C108.386986,234.854248 110.529236,230.082245 112.941635,225.451263 C115.487953,220.563202 118.142807,219.711304 122.991547,222.009735 C136.264038,228.301239 149.529083,234.609070 162.760147,240.987045 C167.540833,243.291550 168.835464,247.220444 166.619736,251.833847 C164.429321,256.394501 162.397995,261.036224 160.072037,265.525909 C157.655075,270.191223 155.015182,270.993225 150.449234,268.778412 C141.054443,264.221313 131.671371,259.640045 121.899857,255.029892 z"/>
  <path fill="#FF5343" opacity="1.000000" stroke="none" d=" M82.577423,369.321625 C88.172569,372.106354 93.420235,374.727814 98.701057,377.280670 C102.557220,379.144806 104.089005,382.085602 102.399574,386.074280 C100.054466,391.611084 97.562668,397.103638 94.748405,402.410858 C94.072060,403.686279 91.902718,404.793243 90.377335,404.850952 C88.016708,404.940308 85.402115,404.521088 83.273186,403.516510 C70.169868,397.333496 57.162083,390.947235 44.146225,384.580109 C39.880226,382.493225 40.339397,378.519653 41.483387,375.213593 C43.121620,370.479187 45.705444,366.074432 47.848526,361.511566 C49.865913,357.216400 52.914112,355.704742 57.402626,357.810028 C64.175957,360.986938 70.950790,364.160858 77.740097,367.303375 C79.208511,367.983063 80.741112,368.524078 82.577423,369.321625 z"/>
  <path fill="#93DEDB" opacity="1.000000" stroke="none" d=" M152.707184,370.287781 C156.977600,372.408447 158.028488,375.435730 156.198196,379.325348 C149.614914,393.315704 142.976700,407.280396 136.313400,421.232849 C134.786179,424.430695 132.374405,425.983673 128.819000,424.366058 C123.264618,421.838928 117.596985,419.500824 112.270142,416.553436 C108.380013,414.401001 107.944374,410.632751 109.788811,406.705139 C116.028419,393.418396 122.260262,380.127594 128.590485,366.883942 C130.605453,362.668396 134.789474,361.615417 139.741394,363.918945 C143.991455,365.895905 148.180313,368.004456 152.707184,370.287781 z"/>
  <path fill="#93DEDB" opacity="1.000000" stroke="none" d=" M161.319641,157.726151 C163.107010,158.623199 164.511612,159.576950 166.052505,159.921890 C173.579361,161.606827 174.372238,167.294708 171.610092,172.965164 C165.619766,185.262772 159.896835,197.690353 153.977875,210.023178 C150.921310,216.391830 148.477310,217.115005 142.157242,214.034439 C137.968430,211.992722 133.652039,210.206039 129.509232,208.078400 C124.952660,205.738281 123.902710,202.515350 126.000999,198.038040 C132.022339,185.189713 138.027100,172.333221 144.134277,159.525650 C147.086090,153.335327 150.538589,152.247971 156.684601,155.285797 C158.134033,156.002228 159.561920,156.762238 161.319641,157.726151 z"/>
  <path fill="#93DEDB" opacity="1.000000" stroke="none" d=" M299.995178,253.035492 C296.321655,260.825500 292.706512,268.235260 289.076111,275.637573 C287.043610,279.781769 283.483551,281.434937 279.266388,279.682526 C274.508850,277.705536 269.976776,275.193176 265.269043,273.087097 C260.680756,271.034454 259.711609,267.061493 261.411896,263.289490 C267.572540,249.622543 274.321381,236.221939 280.731995,222.665863 C282.986389,217.898666 287.091248,218.199020 290.723511,219.420990 C295.574158,221.052872 300.062775,223.753067 304.723907,225.958389 C308.849213,227.910217 310.221191,231.004807 308.328644,235.182114 C305.669586,241.051407 302.816986,246.833023 299.995178,253.035492 z"/>
  <path fill="#93DEDB" opacity="1.000000" stroke="none" d=" M255.311798,451.244385 C258.786316,444.082275 261.725616,437.064117 265.339600,430.412598 C267.499573,426.437164 271.758331,427.367859 275.059052,428.701416 C280.147919,430.757385 285.009766,433.411591 289.853607,436.023956 C292.770782,437.597137 293.849518,440.027161 292.286774,443.331207 C286.704071,455.134521 281.189423,466.969940 275.650696,478.794037 C275.376099,479.380188 275.040527,479.951569 274.862762,480.567230 C272.025574,490.392181 266.184875,491.211639 257.747467,486.359741 C255.087997,484.830444 252.261581,483.594543 249.560104,482.134613 C244.575012,479.440582 243.504440,476.797028 245.732162,471.725952 C248.712540,464.941498 251.939484,458.265320 255.311798,451.244385 z"/>
</svg>