<?xml version="1.0" standalone="yes"?>
<svg xmlns="http://www.w3.org/2000/svg" width="1280" height="640">
<path style="fill:#020303; stroke:none;" d="M0 0L0 640L1280 640L1280 0L0 0z"/>
<path style="fill:#93dfdb; stroke:none;" d="M147.105 154.029C143.334 156.098 141.521 161.317 139.781 165C135.429 174.212 123.455 190.693 124.333 200.996C124.917 207.842 142.903 216.93 148.895 213.806C152.688 211.827 154.499 206.678 156.139 203C160.498 193.22 172.892 176.886 171.809 166.004C171.105 158.937 153.325 150.616 147.105 154.029z"/>
<path style="fill:#ffffff; stroke:none;" d="M145 154L146 155L145 154z"/>
<path style="fill:#ff5343; stroke:none;" d="M189.105 173.032C183.335 176.144 175.643 193.111 180.515 198.61C184.431 203.029 191.825 204.755 197 207.258C209.287 213.203 221.472 219.583 234 225C239.787 227.502 250.354 235.727 256.787 231.971C262.517 228.626 269.593 211.826 264.566 206.39C260.757 202.271 253.921 200.663 249 198.244C237.021 192.355 224.944 186.71 213 180.753C207.43 177.975 195.316 169.681 189.105 173.032z"/>
<path style="fill:#ff0101; stroke:none;" d="M201 175L202 176L201 175M203 176L204 177L203 176z"/>
<path style="fill:#ffffff; stroke:none;" d="M167 178L168 179L167 178z"/>
<path style="fill:#ff0101; stroke:none;" d="M182 183L183 184L182 183M181 185L182 186L181 185M228 188L229 189L228 188z"/>
<path style="fill:#ffffff; stroke:none;" d="M127 191L128 192L127 191M157 199L158 200L157 199z"/>
<path style="fill:#ff0101; stroke:none;" d="M253 200L254 201L253 200M193 205L194 206L193 205M266 208L267 209L266 208M214 215L215 216L214 215z"/>
<path style="fill:#93dfdb; stroke:none;" d="M282.39 219.028C279.06 221.145 277.444 226.619 275.753 230C271.222 239.062 259.169 255.733 260.191 265.996C260.907 273.18 279.365 281.791 285.61 277.821C288.957 275.693 290.554 270.395 292.247 267C296.826 257.819 308.531 241.375 307.758 231.004C307.212 223.674 288.685 215.026 282.39 219.028z"/>
<path style="fill:#ff5343; stroke:none;" d="M115.105 221.032C111.867 222.778 110.283 226.821 108.861 230C107.196 233.721 103.857 238.764 104.677 242.985C106.395 251.816 129.529 258.69 137 262.219C141.775 264.474 150.617 270.558 155.895 267.806C159.445 265.954 161.069 261.449 162.576 258C164.098 254.514 167.166 249.955 166.461 246.005C164.829 236.851 142.46 230.911 135 227.244C129.893 224.733 120.962 217.872 115.105 221.032z"/>
<path style="fill:#ff0101; stroke:none;" d="M263 220L264 221L263 220z"/>
<path style="fill:#ffffff; stroke:none;" d="M279 222L280 223L279 222z"/>
<path style="fill:#ff0101; stroke:none;" d="M235 225L236 226L235 225z"/>
<path style="fill:#93dfdb; stroke:none;" d="M195.213 227.029C189.934 230.111 187.69 239.768 185.219 245C179.065 258.028 172.186 270.795 166.424 284C164.248 288.988 160.43 294.465 160.124 299.999C159.678 308.074 177.781 317.849 184.787 313.817C190.137 310.738 193.071 300.394 195.424 295C200.577 283.191 206.485 271.525 212.247 260C215.021 254.452 219.85 247.24 220.501 241C221.326 233.09 201.737 223.22 195.213 227.029z"/>
<path style="fill:#ff0101; stroke:none;" d="M139 229L140 230L139 229M107 233L108 234L107 233z"/>
<path style="fill:#ff5343; stroke:none;" d="M324.213 238.029C321.158 239.812 319.749 243.996 318.247 247C316.22 251.053 312.829 256.237 314.607 260.957C317.68 269.114 338.427 275.214 346 278.691C351.085 281.026 360.15 287.262 365.787 283.971C368.842 282.188 370.251 278.004 371.753 275C373.677 271.152 376.696 266.533 375.667 262.015C373.695 253.361 352.331 247.361 345 243.756C339.857 241.228 329.972 234.666 324.213 238.029z"/>
<path style="fill:#ff0101; stroke:none;" d="M160 239L161 240L160 239M104 243L105 244L104 243z"/>
<path style="fill:#ffffff; stroke:none;" d="M267 247L268 248L267 247z"/>
<path style="fill:#ff0101; stroke:none;" d="M360 251L361 252L360 251M119 253L120 254L119 253M163 255L164 256L163 255z"/>
<path style="fill:#ffffff; stroke:none;" d="M296 257L297 258L296 257z"/>
<path style="fill:#93dfdb; stroke:none;" d="M96.1049 261.782C90.5672 263.827 87.7307 274.061 85.5756 279C79.5146 292.891 72.0295 306.159 65.8611 320C63.7691 324.694 59.4599 330.786 59.3465 335.996C59.1763 343.814 77.2677 352.067 83.8951 349.396C89.4086 347.173 92.2305 337.028 94.4244 332C99.8809 319.495 106.224 307.245 112.244 295C114.898 289.601 119.768 282.115 119.836 276.001C119.919 268.595 102.815 259.304 96.1049 261.782z"/>
<path style="fill:#ffffff; stroke:none;" d="M176 263L177 264L176 263z"/>
<path style="fill:#ff0101; stroke:none;" d="M329 270L330 271L329 270z"/>
<path style="fill:#ffffff; stroke:none;" d="M206 271L207 272L206 271z"/>
<path style="fill:#ff5343; stroke:none;" d="M225.105 272.782C218.84 275.096 210.99 292.878 215.603 298.61C219.666 303.656 229.228 306.289 235 308.861C247.798 314.565 260.199 321.156 273 326.861C278.3 329.223 285.694 334.966 291.787 332.257C297.843 329.564 304.935 312.815 300.471 307.213C296.813 302.62 289.11 300.795 284 298.247C270.798 291.663 257.473 285.144 244 279.139C238.939 276.883 230.917 270.636 225.105 272.782z"/>
<path style="fill:#ffffff; stroke:none;" d="M267 273L268 274L267 273M285 278L286 279L285 278z"/>
<path style="fill:#ff0101; stroke:none;" d="M244 279L245 280L244 279M350 280L351 281L350 280z"/>
<path style="fill:#ffffff; stroke:none;" d="M165 286L166 287L165 286M115 287L116 288L115 287z"/>
<path style="fill:#ff0101; stroke:none;" d="M267 290L268 291L267 290z"/>
<path style="fill:#93dfdb; stroke:none;" d="M331.108 292.029C326.138 294.781 323.684 304.122 321.247 309C315.317 320.867 310.096 333.096 304.244 345C301.297 350.994 296.09 358.213 295.488 364.999C294.797 372.776 313.471 381.932 319.945 378.781C325.229 376.209 327.773 366.96 330.247 362C336.167 350.129 341.481 337.94 347.258 326C350.193 319.935 355.507 312.83 356.13 306C356.896 297.602 338.097 288.158 331.108 292.029z"/>
<path style="fill:#ffffff; stroke:none;" d="M195 294L196 295L195 294z"/>
<path style="fill:#ff0101; stroke:none;" d="M213 294L214 295L213 294z"/>
<path style="fill:#ffffff; stroke:none;" d="M326 298L327 299L326 298M75 300L76 301L75 300z"/>
<path style="fill:#ff0101; stroke:none;" d="M290 301L291 302L290 301z"/>
<path style="fill:#ff5343; stroke:none;" d="M124.105 309.029C118.281 312.224 110.325 328.761 115.654 334.363C120.351 339.3 129.819 342.328 136 345C146.794 349.667 157.475 354.998 168 360.247C173.525 363.002 185.668 371.329 191.787 367.817C197.207 364.706 205.001 348.149 200.258 342.637C196.845 338.672 189.605 336.55 185 334.247C172.803 328.149 160.391 322.381 148 316.691C141.9 313.891 131.021 305.234 124.105 309.029z"/>
<path style="fill:#ff0101; stroke:none;" d="M234 308L235 309L234 308z"/>
<path style="fill:#ff5343; stroke:none;" d="M1140 429C1120.34 456.909 1079.02 453.84 1058.33 429C1040.8 407.967 1040.4 374.141 1056.04 352C1069.88 332.415 1095.1 322.68 1118 331.229C1123.95 333.452 1133.55 344.482 1139.09 344.169C1144.68 343.852 1151.32 335.917 1156 333C1152.63 324.314 1144 319.248 1136 315.248C1115.1 304.801 1088.36 305.466 1067 314.465C1008.32 339.183 1007.75 428.662 1061 459.127C1076.29 467.872 1091.73 469.409 1109 468.985C1122.85 468.646 1137.19 462.836 1148 454.331C1151.18 451.831 1157.52 447.444 1158.08 443.09C1158.79 437.491 1144.47 430.06 1140 429z"/>
<path style="fill:#ff0101; stroke:none;" d="M302 310L303 311L302 310z"/>
<path style="fill:#ff5343; stroke:none;" d="M460 311L460 466L482 466L482 399L552 399L552 379L482 379L482 332L557 332L557 311L460 311M552 466C557.996 466 571.377 468.526 576.351 464.972C586.393 457.799 582.516 435.469 593.225 429.028C598.173 426.052 608.373 428 614 428L665 428L675.424 456L681.225 465.397L705 466C693.579 426.048 671.089 387.518 655.397 349C651.568 339.602 647.405 330.333 643.421 321C642.002 317.675 640.787 312.442 636.867 311.318C615.618 305.224 612.472 326.963 605.694 342C593.272 369.559 581.364 397.352 569.14 425C563.456 437.856 554.463 452.141 552 466M715 311L715 466C742.823 466 780.7 472.39 805 455.906C834.433 435.939 824.181 393.136 792 384C799.174 379.809 806.24 376.287 810.867 369C822.383 350.86 814.097 325.013 795 316.312C771.898 305.788 739.809 311 715 311M847 311L847 466L869 466L869 398L890.621 399.028L900.281 414L921 450L930.529 464.972L957 466L943.192 442L914 395C950.274 393.418 964.03 343.727 936.999 321.329C915.244 303.301 873.269 311 847 311M980 311L980 466L1001 466L1001 311L980 311z"/>
<path style="fill:#ff0101; stroke:none;" d="M787 313L788 314L787 313z"/>
<path style="fill:#ffffff; stroke:none;" d="M178 314L179 315L178 314z"/>
<path style="fill:#ff0101; stroke:none;" d="M795 316L796 317L795 316M149 317L150 318L149 317M253 317L254 318L253 317z"/>
<path style="fill:#ffffff; stroke:none;" d="M316 319L317 320L316 319z"/>
<path style="fill:#ff0101; stroke:none;" d="M804 322L805 323L804 322z"/>
<path style="fill:#ffffff; stroke:none;" d="M64 323L65 324L64 323z"/>
<path style="fill:#ff0101; stroke:none;" d="M114 325L115 326L114 325M807 325L808 326L807 325z"/>
<path style="fill:#93dfdb; stroke:none;" d="M231.105 327.032C225.985 329.797 223.722 339.048 221.247 344C214.98 356.536 209.426 369.426 203.244 382C200.482 387.617 195.38 394.546 195.294 400.996C195.192 408.694 213.151 417.208 219.787 414.257C224.973 411.951 227.886 401.796 230.244 397C236.095 385.098 241.35 372.88 247.248 361C250.245 354.962 255.336 347.89 255.771 341.004C256.257 333.305 237.696 323.471 231.105 327.032z"/>
<path style="fill:#ff0101; stroke:none;" d="M272 326L273 327L272 326M172 328L173 329L172 328z"/>
<path style="fill:#ffffff; stroke:none;" d="M345 329L346 330L345 329z"/>
<path style="fill:#020303; stroke:none;" d="M737 330L737 375C751.032 375 770.425 378.421 782.999 370.925C797.098 362.52 795.684 339.896 781 332.92C768.456 326.96 750.524 330 737 330M869 330L869 379C884.273 379 905.437 382.649 918.985 374.005C932.055 365.667 930.982 342.668 917.961 334.88C904.629 326.908 883.899 330 869 330z"/>
<path style="fill:#ffffff; stroke:none;" d="M94 331L95 332L94 331z"/>
<path style="fill:#ff0101; stroke:none;" d="M114 333L115 334L114 333z"/>
<path style="fill:#ffffff; stroke:none;" d="M225 335L226 336L225 335z"/>
<path style="fill:#ff0101; stroke:none;" d="M947 335L948 336L947 335M195 339L196 340L195 339z"/>
<path style="fill:#ffffff; stroke:none;" d="M60 340L61 341L60 340z"/>
<path style="fill:#ff0101; stroke:none;" d="M197 340L198 341L197 340z"/>
<path style="fill:#ffffff; stroke:none;" d="M306 340L307 341L306 340z"/>
<path style="fill:#ff0101; stroke:none;" d="M606 340L607 341L606 340z"/>
<path style="fill:#020303; stroke:none;" d="M628 340C618.014 361.349 605.442 386.088 600 409L656 409L641.2 371L628 340z"/>
<path style="fill:#ff0101; stroke:none;" d="M137 345L138 346L137 345M927 348L928 349L927 348M201 350L202 351L201 350z"/>
<path style="fill:#ffffff; stroke:none;" d="M334 352L335 353L334 352z"/>
<path style="fill:#ff0101; stroke:none;" d="M622 353L623 354L622 353M657 354L658 355L657 354z"/>
<path style="fill:#ff5343; stroke:none;" d="M50.1049 357.032C46.788 358.824 45.576 362.785 44.1389 366C42.2427 370.242 39.0326 375.022 40.4375 379.895C42.84 388.229 64.719 394.115 72 397.753C77.0372 400.27 86.052 406.32 91.787 402.971C94.8226 401.199 96.2854 397.007 97.7415 394C99.6131 390.135 102.966 384.513 101.242 380.105C98.0262 371.88 77.523 366.514 70 362.753C64.951 360.229 55.8866 353.908 50.1049 357.032z"/>
<path style="fill:#ffffff; stroke:none;" d="M215 356L216 357L215 356z"/>
<path style="fill:#ff0101; stroke:none;" d="M58 357L59 358L58 357M660 361L661 362L660 361z"/>
<path style="fill:#93dfdb; stroke:none;" d="M130.213 363.028C126.612 365.145 125.146 370.4 123.576 374C119.354 383.676 107.12 399.232 108.191 409.996C108.871 416.828 126.612 426.234 132.787 422.806C136.364 420.819 138.033 415.464 139.752 412C144.361 402.716 156.614 385.501 155.667 375.015C155.012 367.755 136.468 359.35 130.213 363.028z"/>
<path style="fill:#ff0101; stroke:none;" d="M177 364L178 365L177 364M44 365L45 366L44 365M595 365L596 366L595 365z"/>
<path style="fill:#ffffff; stroke:none;" d="M244 366L245 367L244 366z"/>
<path style="fill:#ff0101; stroke:none;" d="M81 368L82 369L81 368M663 368L664 369L663 368M924 368L925 369L924 368M615 370L616 371L615 370z"/>
<path style="fill:#ff5343; stroke:none;" d="M259.213 374.028C256.163 375.821 254.744 379.989 253.248 383C251.287 386.946 247.96 392.341 249.757 396.895C253.036 405.206 273.407 410.46 281 414.247C285.974 416.728 295.262 423.011 300.895 419.968C304.212 418.177 305.424 414.215 306.861 411C308.676 406.941 312.497 401.706 311.013 397.043C308.397 388.823 286.467 382.467 279 379.139C273.587 376.726 265.337 370.427 259.213 374.028z"/>
<path style="fill:#ff0101; stroke:none;" d="M666 375L667 376L666 375z"/>
<path style="fill:#ffffff; stroke:none;" d="M205 377L206 378L205 377M310 377L311 378L310 377z"/>
<path style="fill:#ff0101; stroke:none;" d="M801 378L802 379L801 378M279 379L280 380L279 379z"/>
<path style="fill:#ffffff; stroke:none;" d="M315 379L316 380L315 379M319 379L320 380L319 379z"/>
<path style="fill:#ff0101; stroke:none;" d="M669 382L670 383L669 382M100 387L101 388L100 387z"/>
<path style="fill:#ffffff; stroke:none;" d="M233 389L234 390L233 389z"/>
<path style="fill:#ff0101; stroke:none;" d="M300 389L301 390L300 389M648 389L649 390L648 389M584 390L585 391L584 390M61 392L62 393L61 392M809 392L810 393L809 392z"/>
<path style="fill:#020303; stroke:none;" d="M737 394L737 447C753.18 447 774.688 450.293 788.999 441.031C804.958 430.703 801.715 405.172 785 397.518C770.901 391.063 752.097 394 737 394z"/>
<path style="fill:#ffffff; stroke:none;" d="M113 395L114 396L113 395z"/>
<path style="fill:#ff0101; stroke:none;" d="M603 399L604 400L603 399M788 399L789 400L788 399M82 402L83 403L82 402z"/>
<path style="fill:#ffffff; stroke:none;" d="M143 403L144 404L143 403z"/>
<path style="fill:#ff0101; stroke:none;" d="M894 403L895 404L894 403z"/>
<path style="fill:#ff5343; stroke:none;" d="M160.105 408.757C153.89 411.209 145.96 428.691 150.742 434.443C154.232 438.64 162.185 440.84 167 443.247C180.199 449.846 193.785 455.687 207 462.248C212.145 464.802 219.915 470.669 225.957 468.393C231.865 466.167 240.606 449.022 236.254 443.39C232.86 438.998 224.858 436.674 220 434.247C206.468 427.485 192.532 421.515 179 414.753C173.969 412.239 166.004 406.429 160.105 408.757z"/>
<path style="fill:#ff0101; stroke:none;" d="M165 408L166 409L165 408M271 409L272 410L271 409M820 409L821 410L820 409z"/>
<path style="fill:#ffffff; stroke:none;" d="M223 410L224 411L223 410z"/>
<path style="fill:#ff0101; stroke:none;" d="M306 411L307 412L306 411M798 413L799 414L798 413M573 415L574 416L573 415M186 418L187 419L186 418M290 418L291 419L290 418M929 420L930 421L929 420M799 421L800 422L799 421z"/>
<path style="fill:#ffffff; stroke:none;" d="M125 422L126 423L125 422z"/>
<path style="fill:#93dfdb; stroke:none;" d="M266.213 428.028C262.9 429.976 261.382 434.734 259.753 438C255.231 447.066 242.654 464.757 243.898 474.996C244.799 482.41 262.334 490.697 268.867 486.972C272.485 484.91 273.993 479.529 275.753 476C280.315 466.854 292.196 450.322 291.586 440.015C291.156 432.729 272.388 424.397 266.213 428.028z"/>
<path style="fill:#ff0101; stroke:none;" d="M209 429L210 430L209 429M590 431L591 432L590 431z"/>
<path style="fill:#ffffff; stroke:none;" d="M286 433L287 434L286 433M288 434L289 435L288 434z"/>
<path style="fill:#ff0101; stroke:none;" d="M588 436L589 437L588 436M155 437L156 438L155 437M232 440L233 441L232 440M234 441L235 442L234 441M917 443L918 444L917 443z"/>
<path style="fill:#ffffff; stroke:none;" d="M255 447L256 448L255 447z"/>
<path style="fill:#ff0101; stroke:none;" d="M178 448L179 449L178 448M558 449L559 450L558 449M805 455L806 456L805 455M800 458L801 459L800 458M201 459L202 460L201 459M677 460L678 461L677 460z"/>
<path style="fill:#ffffff; stroke:none;" d="M282 461L283 462L282 461z"/>
<path style="fill:#ff0101; stroke:none;" d="M793 461L794 462L793 461z"/>
<path style="fill:#ffffff; stroke:none;" d="M243 473L244 474L243 473M272 482L273 483L272 482z"/>
</svg>
